<svg width="1200" height="800" viewBox="0 0 1200 800" xmlns="http://www.w3.org/2000/svg">
  <!-- Background -->
  <rect width="1200" height="800" fill="#f8fafc"/>
  
  <!-- Title -->
  <text x="600" y="40" text-anchor="middle" font-size="24" font-weight="bold" fill="#1e293b">
    Vite React TypeScript Starter - System Architecture
  </text>
  
  <!-- Browser Layer -->
  <rect x="50" y="80" width="1100" height="120" rx="8" fill="#dbeafe" stroke="#3b82f6" stroke-width="2"/>
  <text x="70" y="105" font-size="16" font-weight="semibold" fill="#1e40af">Browser Environment</text>
  
  <!-- User Interface -->
  <rect x="80" y="120" width="200" height="60" rx="4" fill="#bfdbfe" stroke="#3b82f6"/>
  <text x="180" y="140" text-anchor="middle" font-size="12" fill="#1e40af">React Components</text>
  <text x="180" y="155" text-anchor="middle" font-size="10" fill="#1e40af">JSX + TypeScript</text>
  <text x="180" y="170" text-anchor="middle" font-size="10" fill="#1e40af">Tailwind CSS</text>
  
  <!-- State Management -->
  <rect x="320" y="120" width="180" height="60" rx="4" fill="#bfdbfe" stroke="#3b82f6"/>
  <text x="410" y="140" text-anchor="middle" font-size="12" fill="#1e40af">State Management</text>
  <text x="410" y="155" text-anchor="middle" font-size="10" fill="#1e40af">React Hooks</text>
  <text x="410" y="170" text-anchor="middle" font-size="10" fill="#1e40af">Context API</text>
  
  <!-- Routing -->
  <rect x="540" y="120" width="160" height="60" rx="4" fill="#bfdbfe" stroke="#3b82f6"/>
  <text x="620" y="140" text-anchor="middle" font-size="12" fill="#1e40af">Routing</text>
  <text x="620" y="155" text-anchor="middle" font-size="10" fill="#1e40af">React Router</text>
  <text x="620" y="170" text-anchor="middle" font-size="10" fill="#1e40af">(Future)</text>
  
  <!-- Icons & Assets -->
  <rect x="740" y="120" width="160" height="60" rx="4" fill="#bfdbfe" stroke="#3b82f6"/>
  <text x="820" y="140" text-anchor="middle" font-size="12" fill="#1e40af">Assets</text>
  <text x="820" y="155" text-anchor="middle" font-size="10" fill="#1e40af">Lucide Icons</text>
  <text x="820" y="170" text-anchor="middle" font-size="10" fill="#1e40af">Static Files</text>
  
  <!-- Build Tools -->
  <rect x="940" y="120" width="160" height="60" rx="4" fill="#bfdbfe" stroke="#3b82f6"/>
  <text x="1020" y="140" text-anchor="middle" font-size="12" fill="#1e40af">HMR & DevTools</text>
  <text x="1020" y="155" text-anchor="middle" font-size="10" fill="#1e40af">Vite Dev Server</text>
  <text x="1020" y="170" text-anchor="middle" font-size="10" fill="#1e40af">React DevTools</text>
  
  <!-- Development Layer -->
  <rect x="50" y="240" width="1100" height="160" rx="8" fill="#f0fdf4" stroke="#16a34a" stroke-width="2"/>
  <text x="70" y="265" font-size="16" font-weight="semibold" fill="#15803d">Development Environment</text>
  
  <!-- Vite Build Tool -->
  <rect x="80" y="280" width="200" height="100" rx="4" fill="#dcfce7" stroke="#16a34a"/>
  <text x="180" y="300" text-anchor="middle" font-size="14" font-weight="semibold" fill="#15803d">Vite 5</text>
  <text x="180" y="320" text-anchor="middle" font-size="10" fill="#15803d">• Lightning-fast HMR</text>
  <text x="180" y="335" text-anchor="middle" font-size="10" fill="#15803d">• ES Modules</text>
  <text x="180" y="350" text-anchor="middle" font-size="10" fill="#15803d">• Plugin Ecosystem</text>
  <text x="180" y="365" text-anchor="middle" font-size="10" fill="#15803d">• Optimized Builds</text>
  
  <!-- TypeScript -->
  <rect x="320" y="280" width="180" height="100" rx="4" fill="#dcfce7" stroke="#16a34a"/>
  <text x="410" y="300" text-anchor="middle" font-size="14" font-weight="semibold" fill="#15803d">TypeScript 5</text>
  <text x="410" y="320" text-anchor="middle" font-size="10" fill="#15803d">• Type Safety</text>
  <text x="410" y="335" text-anchor="middle" font-size="10" fill="#15803d">• IntelliSense</text>
  <text x="410" y="350" text-anchor="middle" font-size="10" fill="#15803d">• Compile-time Errors</text>
  <text x="410" y="365" text-anchor="middle" font-size="10" fill="#15803d">• Modern Features</text>
  
  <!-- ESLint -->
  <rect x="540" y="280" width="160" height="100" rx="4" fill="#dcfce7" stroke="#16a34a"/>
  <text x="620" y="300" text-anchor="middle" font-size="14" font-weight="semibold" fill="#15803d">ESLint</text>
  <text x="620" y="320" text-anchor="middle" font-size="10" fill="#15803d">• Code Quality</text>
  <text x="620" y="335" text-anchor="middle" font-size="10" fill="#15803d">• Style Enforcement</text>
  <text x="620" y="350" text-anchor="middle" font-size="10" fill="#15803d">• React Rules</text>
  <text x="620" y="365" text-anchor="middle" font-size="10" fill="#15803d">• Auto-fix</text>
  
  <!-- Tailwind -->
  <rect x="740" y="280" width="160" height="100" rx="4" fill="#dcfce7" stroke="#16a34a"/>
  <text x="820" y="300" text-anchor="middle" font-size="14" font-weight="semibold" fill="#15803d">Tailwind CSS</text>
  <text x="820" y="320" text-anchor="middle" font-size="10" fill="#15803d">• Utility Classes</text>
  <text x="820" y="335" text-anchor="middle" font-size="10" fill="#15803d">• JIT Compilation</text>
  <text x="820" y="350" text-anchor="middle" font-size="10" fill="#15803d">• Responsive Design</text>
  <text x="820" y="365" text-anchor="middle" font-size="10" fill="#15803d">• Custom Theming</text>
  
  <!-- PostCSS -->
  <rect x="940" y="280" width="160" height="100" rx="4" fill="#dcfce7" stroke="#16a34a"/>
  <text x="1020" y="300" text-anchor="middle" font-size="14" font-weight="semibold" fill="#15803d">PostCSS</text>
  <text x="1020" y="320" text-anchor="middle" font-size="10" fill="#15803d">• CSS Processing</text>
  <text x="1020" y="335" text-anchor="middle" font-size="10" fill="#15803d">• Autoprefixer</text>
  <text x="1020" y="350" text-anchor="middle" font-size="10" fill="#15803d">• Plugin System</text>
  <text x="1020" y="365" text-anchor="middle" font-size="10" fill="#15803d">• Optimization</text>
  
  <!-- File System Layer -->
  <rect x="50" y="440" width="1100" height="140" rx="8" fill="#fdf2f8" stroke="#ec4899" stroke-width="2"/>
  <text x="70" y="465" font-size="16" font-weight="semibold" fill="#be185d">Project Structure</text>
  
  <!-- Source Directory -->
  <rect x="80" y="485" width="160" height="80" rx="4" fill="#fce7f3" stroke="#ec4899"/>
  <text x="160" y="505" text-anchor="middle" font-size="12" font-weight="semibold" fill="#be185d">src/</text>
  <text x="160" y="520" text-anchor="middle" font-size="9" fill="#be185d">• main.tsx</text>
  <text x="160" y="532" text-anchor="middle" font-size="9" fill="#be185d">• App.tsx</text>
  <text x="160" y="544" text-anchor="middle" font-size="9" fill="#be185d">• index.css</text>
  <text x="160" y="556" text-anchor="middle" font-size="9" fill="#be185d">• vite-env.d.ts</text>
  
  <!-- Public Directory -->
  <rect x="260" y="485" width="140" height="80" rx="4" fill="#fce7f3" stroke="#ec4899"/>
  <text x="330" y="505" text-anchor="middle" font-size="12" font-weight="semibold" fill="#be185d">public/</text>
  <text x="330" y="520" text-anchor="middle" font-size="9" fill="#be185d">• vite.svg</text>
  <text x="330" y="532" text-anchor="middle" font-size="9" fill="#be185d">• favicon.ico</text>
  <text x="330" y="544" text-anchor="middle" font-size="9" fill="#be185d">• robots.txt</text>
  
  <!-- Configuration Files -->
  <rect x="420" y="485" width="160" height="80" rx="4" fill="#fce7f3" stroke="#ec4899"/>
  <text x="500" y="505" text-anchor="middle" font-size="12" font-weight="semibold" fill="#be185d">Configuration</text>
  <text x="500" y="520" text-anchor="middle" font-size="9" fill="#be185d">• vite.config.ts</text>
  <text x="500" y="532" text-anchor="middle" font-size="9" fill="#be185d">• tsconfig.json</text>
  <text x="500" y="544" text-anchor="middle" font-size="9" fill="#be185d">• tailwind.config.js</text>
  <text x="500" y="556" text-anchor="middle" font-size="9" fill="#be185d">• eslint.config.js</text>
  
  <!-- Package Management -->
  <rect x="600" y="485" width="150" height="80" rx="4" fill="#fce7f3" stroke="#ec4899"/>
  <text x="675" y="505" text-anchor="middle" font-size="12" font-weight="semibold" fill="#be185d">Dependencies</text>
  <text x="675" y="520" text-anchor="middle" font-size="9" fill="#be185d">• package.json</text>
  <text x="675" y="532" text-anchor="middle" font-size="9" fill="#be185d">• package-lock.json</text>
  <text x="675" y="544" text-anchor="middle" font-size="9" fill="#be185d">• node_modules/</text>
  
  <!-- Documentation -->
  <rect x="770" y="485" width="140" height="80" rx="4" fill="#fce7f3" stroke="#ec4899"/>
  <text x="840" y="505" text-anchor="middle" font-size="12" font-weight="semibold" fill="#be185d">Documentation</text>
  <text x="840" y="520" text-anchor="middle" font-size="9" fill="#be185d">• README.md</text>
  <text x="840" y="532" text-anchor="middle" font-size="9" fill="#be185d">• CHANGELOG.md</text>
  <text x="840" y="544" text-anchor="middle" font-size="9" fill="#be185d">• LICENSE</text>
  
  <!-- Git & CI/CD -->
  <rect x="930" y="485" width="170" height="80" rx="4" fill="#fce7f3" stroke="#ec4899"/>
  <text x="1015" y="505" text-anchor="middle" font-size="12" font-weight="semibold" fill="#be185d">Version Control</text>
  <text x="1015" y="520" text-anchor="middle" font-size="9" fill="#be185d">• .gitignore</text>
  <text x="1015" y="532" text-anchor="middle" font-size="9" fill="#be185d">• .github/</text>
  <text x="1015" y="544" text-anchor="middle" font-size="9" fill="#be185d">• workflows/</text>
  
  <!-- Build & Deployment Layer -->
  <rect x="50" y="620" width="1100" height="120" rx="8" fill="#fffbeb" stroke="#f59e0b" stroke-width="2"/>
  <text x="70" y="645" font-size="16" font-weight="semibold" fill="#d97706">Build & Deployment</text>
  
  <!-- Development Build -->
  <rect x="80" y="665" width="200" height="60" rx="4" fill="#fef3c7" stroke="#f59e0b"/>
  <text x="180" y="685" text-anchor="middle" font-size="12" fill="#d97706">Development</text>
  <text x="180" y="700" text-anchor="middle" font-size="10" fill="#d97706">npm run dev</text>
  <text x="180" y="715" text-anchor="middle" font-size="10" fill="#d97706">Hot Reload + Source Maps</text>
  
  <!-- Production Build -->
  <rect x="320" y="665" width="200" height="60" rx="4" fill="#fef3c7" stroke="#f59e0b"/>
  <text x="420" y="685" text-anchor="middle" font-size="12" fill="#d97706">Production Build</text>
  <text x="420" y="700" text-anchor="middle" font-size="10" fill="#d97706">npm run build</text>
  <text x="420" y="715" text-anchor="middle" font-size="10" fill="#d97706">Minified + Tree Shaken</text>
  
  <!-- Static Hosting -->
  <rect x="560" y="665" width="180" height="60" rx="4" fill="#fef3c7" stroke="#f59e0b"/>
  <text x="650" y="685" text-anchor="middle" font-size="12" fill="#d97706">Static Hosting</text>
  <text x="650" y="700" text-anchor="middle" font-size="10" fill="#d97706">Vercel • Netlify</text>
  <text x="650" y="715" text-anchor="middle" font-size="10" fill="#d97706">GitHub Pages</text>
  
  <!-- CDN -->
  <rect x="780" y="665" width="160" height="60" rx="4" fill="#fef3c7" stroke="#f59e0b"/>
  <text x="860" y="685" text-anchor="middle" font-size="12" fill="#d97706">CDN Delivery</text>
  <text x="860" y="700" text-anchor="middle" font-size="10" fill="#d97706">Global Edge Cache</text>
  <text x="860" y="715" text-anchor="middle" font-size="10" fill="#d97706">Fast Loading</text>
  
  <!-- Analytics -->
  <rect x="980" y="665" width="160" height="60" rx="4" fill="#fef3c7" stroke="#f59e0b"/>
  <text x="1060" y="685" text-anchor="middle" font-size="12" fill="#d97706">Monitoring</text>
  <text x="1060" y="700" text-anchor="middle" font-size="10" fill="#d97706">Performance Metrics</text>
  <text x="1060" y="715" text-anchor="middle" font-size="10" fill="#d97706">Error Tracking</text>
  
  <!-- Data Flow Arrows -->
  <defs>
    <marker id="arrowhead" markerWidth="10" markerHeight="7" refX="0" refY="3.5" orient="auto">
      <polygon points="0 0, 10 3.5, 0 7" fill="#6b7280"/>
    </marker>
  </defs>
  
  <!-- Development Flow -->
  <line x1="180" y1="200" x2="180" y2="280" stroke="#6b7280" stroke-width="2" marker-end="url(#arrowhead)"/>
  <line x1="410" y1="200" x2="410" y2="280" stroke="#6b7280" stroke-width="2" marker-end="url(#arrowhead)"/>
  <line x1="620" y1="200" x2="620" y2="280" stroke="#6b7280" stroke-width="2" marker-end="url(#arrowhead)"/>
  <line x1="820" y1="200" x2="820" y2="280" stroke="#6b7280" stroke-width="2" marker-end="url(#arrowhead)"/>
  <line x1="1020" y1="200" x2="1020" y2="280" stroke="#6b7280" stroke-width="2" marker-end="url(#arrowhead)"/>
  
  <!-- Build Flow -->
  <line x1="500" y1="400" x2="420" y2="665" stroke="#6b7280" stroke-width="2" marker-end="url(#arrowhead)"/>
  <line x1="420" y1="725" x2="650" y2="725" stroke="#6b7280" stroke-width="2" marker-end="url(#arrowhead)"/>
  <line x1="650" y1="665" x2="860" y2="665" stroke="#6b7280" stroke-width="2" marker-end="url(#arrowhead)"/>
  <line x1="860" y1="725" x2="1060" y2="725" stroke="#6b7280" stroke-width="2" marker-end="url(#arrowhead)"/>
  
  <!-- Legend -->
  <rect x="50" y="760" width="300" height="30" rx="4" fill="#f1f5f9" stroke="#cbd5e1"/>
  <circle cx="70" cy="775" r="4" fill="#3b82f6"/>
  <text x="85" y="780" font-size="10" fill="#475569">Frontend Layer</text>
  <circle cx="170" cy="775" r="4" fill="#16a34a"/>
  <text x="185" y="780" font-size="10" fill="#475569">Development Tools</text>
  <circle cx="280" cy="775" r="4" fill="#ec4899"/>
  <text x="295" y="780" font-size="10" fill="#475569">Project Files</text>
  
  <rect x="370" y="760" width="200" height="30" rx="4" fill="#f1f5f9" stroke="#cbd5e1"/>
  <circle cx="390" cy="775" r="4" fill="#f59e0b"/>
  <text x="405" y="780" font-size="10" fill="#475569">Build & Deploy</text>
  <line x1="480" y1="775" x2="500" y2="775" stroke="#6b7280" stroke-width="2" marker-end="url(#arrowhead)"/>
  <text x="510" y="780" font-size="10" fill="#475569">Data Flow</text>
</svg>